<svg width="365" height="251" viewBox="0 0 365 251" fill="none" xmlns="http://www.w3.org/2000/svg">
<g filter="url(#filter0_d_2_588)">
<rect x="80.9956" y="35" width="204" height="91" rx="12" fill="white"/>
</g>
<path d="M192.621 68.1023V70.869C192.628 71.0545 192.708 71.2297 192.844 71.3569C192.979 71.4841 193.159 71.5532 193.344 71.5492H199.771L192.366 82.1452C191.898 82.8263 191.898 83.5919 191.898 84.0175V86.8258C191.898 87.2513 192.366 87.6768 192.792 87.4641C196.962 85.2086 202.026 85.4214 205.813 87.4215C206.281 87.6765 206.706 87.2087 206.706 86.7832V83.847C206.664 83.464 206.536 83.0384 206.068 82.7831C203.941 81.5919 201.43 81.2516 199.047 81.2942L205.43 72.1876C206.026 71.3361 206.366 70.8258 206.366 70.4428V68.1023C206.359 67.9166 206.279 67.7413 206.143 67.614C206.008 67.4866 205.828 67.4175 205.642 67.4214H193.302C193.211 67.4166 193.12 67.4309 193.036 67.4634C192.951 67.4959 192.874 67.5459 192.81 67.6101C192.745 67.6743 192.695 67.7513 192.663 67.8361C192.63 67.9209 192.616 68.0116 192.621 68.1023Z" fill="#C4C4C4"/>
<path d="M143.897 88.0176H147.641C147.825 88.0241 148.005 87.9627 148.146 87.8449C148.288 87.7271 148.38 87.5614 148.407 87.3794V77.1663C148.407 77.0996 148.407 77.0322 148.407 76.9642C148.405 74.7324 148.401 71.847 151.003 71.847C153.378 71.847 153.339 74.4343 153.308 76.5029C153.304 76.7318 153.301 76.9543 153.301 77.1663V87.3794C153.301 87.7199 153.599 88.0177 153.982 88.0603H157.727C157.912 88.0642 158.092 87.995 158.227 87.8677C158.363 87.7403 158.443 87.565 158.45 87.3794V77.1663C158.45 77.0688 158.45 76.9673 158.449 76.8627C158.446 75.7799 158.441 74.3566 158.79 73.4642C158.972 73.0104 159.282 72.6195 159.683 72.3398C160.083 72.06 160.557 71.9035 161.046 71.8896C162.152 71.8896 162.961 72.2726 163.259 73.5492C163.392 74.1503 163.368 75.5376 163.352 76.4977C163.348 76.761 163.344 76.9923 163.344 77.1663V87.3794C163.344 87.7199 163.642 88.0177 164.025 88.0603H167.727C167.913 88.0642 168.093 87.995 168.228 87.8677C168.363 87.7403 168.443 87.565 168.451 87.3794V75.2089C168.451 74.8988 168.456 74.5831 168.462 74.2649C168.494 72.4436 168.528 70.5428 167.514 69.1663C166.45 67.6768 164.748 67.0385 163.174 67.0385C160.961 67.0385 158.875 68.1875 157.982 70.613C156.96 68.1875 155.471 67.0385 153.131 67.0385C150.833 67.0385 149.088 68.1875 148.194 70.613H148.109V68.1023C148.096 67.9303 148.018 67.7695 147.892 67.6515C147.766 67.5335 147.601 67.4666 147.428 67.464H143.939C143.753 67.4601 143.573 67.5293 143.438 67.6566C143.303 67.7839 143.223 67.9593 143.216 68.1449V87.3793C143.243 87.5456 143.325 87.6983 143.448 87.8136C143.571 87.929 143.729 88.0006 143.897 88.0176Z" fill="#C4C4C4"/>
<path fill-rule="evenodd" clip-rule="evenodd" d="M225.6 77.8898C225.6 71.8046 222.579 67.0385 217.004 67.0385C211.557 67.0385 208.536 71.7194 208.579 77.7195C208.579 83.6771 211.557 88.4431 217.004 88.4431C222.281 88.4431 225.6 83.7623 225.6 77.8898ZM214.068 77.1238C214.068 74.7834 214.238 70.996 217.004 70.996C218.196 70.996 219.047 71.5065 219.472 72.8683C219.941 74.4004 220.026 76.3577 220.026 77.9749C220.026 80.443 219.856 84.4857 216.962 84.4857C214.066 84.4857 214.068 79.6028 214.068 77.2229L214.068 77.1238Z" fill="#C4C4C4"/>
<path d="M229.047 88.0176H232.792C232.98 88.0158 233.162 87.9463 233.302 87.8211C233.443 87.6959 233.534 87.524 233.558 87.337V76.9533C233.558 75.6341 233.643 74.4848 234.153 73.2936C234.579 72.3573 235.43 71.7617 236.324 71.7617C238.711 71.7617 238.687 74.3532 238.667 76.4246C238.666 76.6056 238.664 76.7826 238.664 76.9536V87.4216C238.707 87.7194 239.005 87.9746 239.345 88.0172H243.09C243.263 88.0249 243.432 87.9682 243.566 87.8583C243.7 87.7483 243.788 87.5927 243.813 87.4216V75.2937C243.813 73.4213 243.813 70.8255 242.835 69.2936C241.771 67.6337 240.111 67.0382 238.452 67.0382C235.856 67.0382 234.409 68.2722 233.345 70.9106H233.26V67.9744C233.222 67.8206 233.135 67.6834 233.012 67.5836C232.889 67.4838 232.737 67.4267 232.579 67.4211H229.09C228.912 67.4225 228.742 67.4878 228.609 67.6051C228.476 67.7224 228.39 67.8837 228.366 68.0594V87.3367C228.366 87.6772 228.664 87.975 229.047 88.0176Z" fill="#C4C4C4"/>
<path fill-rule="evenodd" clip-rule="evenodd" d="M186.145 88.1614C186.306 88.1461 186.457 88.081 186.578 87.9751L186.58 87.975C186.852 87.7484 187.199 87.4521 187.569 87.1355C188.243 86.5604 188.995 85.9185 189.516 85.5068C189.814 85.2941 189.771 84.8685 189.516 84.5281C189.434 84.4102 189.351 84.2954 189.269 84.1816C188.671 83.3507 188.112 82.5733 188.112 81.0387V75.2088C188.112 75.014 188.113 74.8202 188.114 74.6277C188.126 72.3821 188.138 70.3084 186.452 68.7406C185.005 67.3363 182.622 66.8683 180.793 66.8683C177.218 66.8683 173.26 68.1875 172.409 72.6131C172.324 73.0813 172.665 73.294 172.963 73.3791L176.58 73.7621C176.92 73.7621 177.133 73.4216 177.218 73.0812C177.516 71.5491 178.793 70.8258 180.239 70.8258C181.005 70.8258 181.856 71.1235 182.324 71.8044C182.813 72.4816 182.803 73.3919 182.794 74.2112C182.793 74.3186 182.792 74.4244 182.792 74.5279V74.9959C182.439 75.0375 182.068 75.0767 181.686 75.1172C179.716 75.3258 177.439 75.567 175.728 76.3151C173.387 77.3366 171.727 79.3791 171.727 82.443C171.727 86.3154 174.196 88.2729 177.345 88.2729C179.983 88.2729 181.472 87.6339 183.515 85.5494C183.614 85.6923 183.705 85.8253 183.79 85.9513C184.291 86.6882 184.631 87.188 185.685 88.0602C185.824 88.1412 185.985 88.1766 186.145 88.1614ZM182.791 79.0545C182.791 78.9789 182.791 78.9028 182.791 78.826V78.0181C180.068 78.0181 177.217 78.6139 177.217 81.8054C177.217 83.4226 178.068 84.5289 179.514 84.5289C180.578 84.5289 181.515 83.8906 182.11 82.8267C182.795 81.5769 182.793 80.4041 182.791 79.0545Z" fill="#C4C4C4"/>
<path fill-rule="evenodd" clip-rule="evenodd" d="M136.953 88.1614C137.113 88.1461 137.264 88.081 137.386 87.9751L137.387 87.975C137.659 87.7484 138.006 87.4521 138.377 87.1355C139.05 86.5604 139.802 85.9185 140.323 85.5068C140.621 85.2941 140.579 84.8685 140.323 84.5281C140.241 84.4102 140.159 84.2954 140.077 84.1816C139.479 83.3507 138.919 82.5733 138.919 81.0387V75.2088C138.919 75.014 138.92 74.8202 138.921 74.6277C138.933 72.3821 138.945 70.3084 137.259 68.7406C135.813 67.3363 133.43 66.8683 131.6 66.8683C128.025 66.8683 124.068 68.1875 123.217 72.6131C123.132 73.0813 123.472 73.294 123.77 73.3791L127.387 73.7621C127.728 73.7621 127.94 73.4216 128.025 73.0812C128.323 71.5491 129.6 70.8258 131.047 70.8258C131.812 70.8258 132.663 71.1235 133.131 71.8044C133.62 72.4816 133.61 73.3919 133.602 74.2112C133.6 74.3186 133.599 74.4244 133.599 74.5279V74.9959C133.246 75.0375 132.876 75.0767 132.493 75.1172C130.524 75.3258 128.246 75.567 126.535 76.3151C124.194 77.3366 122.535 79.3791 122.535 82.443C122.535 86.3154 125.003 88.2729 128.152 88.2729C130.79 88.2729 132.28 87.6339 134.322 85.5494C134.422 85.6923 134.512 85.8253 134.598 85.9513C135.099 86.6882 135.439 87.188 136.492 88.0602C136.631 88.1412 136.792 88.1766 136.953 88.1614ZM133.641 79.0546C133.641 78.979 133.641 78.9028 133.641 78.826V78.0181C130.918 78.0181 128.066 78.6139 128.066 81.8054C128.066 83.4226 128.917 84.5289 130.364 84.5289C131.428 84.5289 132.365 83.8906 132.96 82.8267C133.645 81.5769 133.643 80.4041 133.641 79.0546Z" fill="#C4C4C4"/>
<path d="M200.706 92.0602C199.812 90.9113 194.748 91.507 192.493 91.8049C191.812 91.89 191.684 91.2943 192.322 90.8687C196.365 88.0176 202.961 88.8686 203.727 89.8048C204.493 90.741 203.514 97.379 199.726 100.528C199.131 100.996 198.577 100.741 198.833 100.103L198.877 99.9915C199.749 97.8147 201.584 93.231 200.706 92.0602Z" fill="#C4C4C4"/>
<path d="M197.77 95.4223C190.748 100.614 180.535 103.38 171.726 103.38C159.386 103.38 148.322 98.8266 139.896 91.2521C139.258 90.6565 139.811 89.8478 140.619 90.3159C149.683 95.5925 160.875 98.7416 172.45 98.7416C180.237 98.7416 188.833 97.1246 196.748 93.7627C197.939 93.2946 198.919 94.5712 197.77 95.4223Z" fill="#C4C4C4"/>
<defs>
<filter id="filter0_d_2_588" x="0.995605" y="0" width="364" height="251" filterUnits="userSpaceOnUse" color-interpolation-filters="sRGB">
<feFlood flood-opacity="0" result="BackgroundImageFix"/>
<feColorMatrix in="SourceAlpha" type="matrix" values="0 0 0 0 0 0 0 0 0 0 0 0 0 0 0 0 0 0 127 0" result="hardAlpha"/>
<feOffset dy="45"/>
<feGaussianBlur stdDeviation="40"/>
<feColorMatrix type="matrix" values="0 0 0 0 0 0 0 0 0 0 0 0 0 0 0 0 0 0 0.04 0"/>
<feBlend mode="normal" in2="BackgroundImageFix" result="effect1_dropShadow_2_588"/>
<feBlend mode="normal" in="SourceGraphic" in2="effect1_dropShadow_2_588" result="shape"/>
</filter>
</defs>
</svg>
